<svg width="22" height="22" viewBox="0 0 22 22" fill="none" xmlns="http://www.w3.org/2000/svg">
<mask id="path-1-inside-1" fill="white">
<path d="M17.4233 0.908517L11.1172 7.21496C9.0153 5.11372 6.9127 3.01044 4.81044 0.908517C2.37849 -1.52343 -1.3912 2.24762 1.03871 4.68024C3.14131 6.78081 5.24459 8.88443 7.34482 10.9863C5.24363 13.0892 3.14159 15.1913 1.03871 17.2925C-1.3912 19.7237 2.37883 23.4938 4.81044 21.0642C6.91236 18.9616 9.01496 16.8586 11.1169 14.7574L17.423 21.0642C19.8549 23.4955 23.6256 19.7241 21.1947 17.2925C19.0921 15.1899 16.9902 13.0879 14.8869 10.9857C16.9898 8.88307 19.0918 6.78047 21.1947 4.67821C23.626 2.24762 19.8553 -1.52343 17.423 0.909874"/>
</mask>
<path d="M17.4233 0.908517L11.1172 7.21496C9.0153 5.11372 6.9127 3.01044 4.81044 0.908517C2.37849 -1.52343 -1.3912 2.24762 1.03871 4.68024C3.14131 6.78081 5.24459 8.88443 7.34482 10.9863C5.24363 13.0892 3.14159 15.1913 1.03871 17.2925C-1.3912 19.7237 2.37883 23.4938 4.81044 21.0642C6.91236 18.9616 9.01496 16.8586 11.1169 14.7574L17.423 21.0642C19.8549 23.4955 23.6256 19.7241 21.1947 17.2925C19.0921 15.1899 16.9902 13.0879 14.8869 10.9857C16.9898 8.88307 19.0918 6.78047 21.1947 4.67821C23.626 2.24762 19.8553 -1.52343 17.423 0.909874" fill="#DC3163"/>
<path d="M11.1172 7.21496L10.4102 7.92218L11.1174 8.62908L11.8243 7.92205L11.1172 7.21496ZM4.81044 0.908517L4.10333 1.61562L4.10339 1.61568L4.81044 0.908517ZM1.03871 4.68024L0.331209 5.38695L0.331946 5.38769L1.03871 4.68024ZM7.34482 10.9863L8.05221 11.6932L8.75846 10.9863L8.05221 10.2795L7.34482 10.9863ZM1.03871 17.2925L0.331889 16.5851L0.331406 16.5855L1.03871 17.2925ZM4.81044 21.0642L5.51725 21.7716L5.51766 21.7712L4.81044 21.0642ZM11.1169 14.7574L11.824 14.0503L11.117 13.3433L10.4099 14.0502L11.1169 14.7574ZM17.423 21.0642L16.7158 21.7712L16.716 21.7714L17.423 21.0642ZM21.1947 17.2925L21.9019 16.5854L21.9018 16.5854L21.1947 17.2925ZM14.8869 10.9857L14.1799 10.2785L13.4725 10.9858L14.18 11.6929L14.8869 10.9857ZM21.1947 4.67821L21.9017 5.38543L21.9017 5.38541L21.1947 4.67821ZM16.7162 0.201429L10.4101 6.50788L11.8243 7.92205L18.1305 1.6156L16.7162 0.201429ZM11.8242 6.50774C9.72221 4.40642 7.62009 2.30362 5.51749 0.201353L4.10339 1.61568C6.2053 3.71726 8.30839 5.82102 10.4102 7.92218L11.8242 6.50774ZM5.51754 0.20141C4.70937 -0.606766 3.73441 -0.939456 2.77826 -0.867389C1.84949 -0.797385 1.00996 -0.352748 0.394204 0.263121C-0.221559 0.878995 -0.666038 1.71859 -0.736226 2.64729C-0.808479 3.60331 -0.476397 4.57845 0.331209 5.38695L1.74621 3.97353C1.33886 3.56572 1.23094 3.15724 1.25809 2.79801C1.2873 2.41146 1.48163 2.00418 1.80855 1.67721C2.13546 1.35023 2.54248 1.15606 2.92858 1.12695C3.2873 1.09992 3.69553 1.20783 4.10333 1.61562L5.51754 0.20141ZM0.331946 5.38769C2.43428 7.48799 4.53735 9.5914 6.63743 11.6932L8.05221 10.2795C5.95183 8.17746 3.84834 6.07362 1.74547 3.97279L0.331946 5.38769ZM6.63743 10.2795C4.53643 12.3822 2.43458 14.4841 0.331889 16.5851L1.74553 17.9998C3.84861 15.8985 5.95083 13.7962 8.05221 11.6932L6.63743 10.2795ZM0.331406 16.5855C-0.476315 17.3937 -0.808485 18.3686 -0.736173 19.3246C-0.665933 20.2531 -0.221333 21.0925 0.394395 21.7082C1.01013 22.324 1.84952 22.7686 2.77807 22.8389C3.73399 22.9112 4.70896 22.5792 5.51725 21.7716L4.10363 20.3568C3.6961 20.764 3.28797 20.8717 2.92905 20.8446C2.54277 20.8153 2.1356 20.621 1.80861 20.294C1.48162 19.967 1.28734 19.5599 1.25813 19.1737C1.23099 18.8149 1.33878 18.4068 1.74601 17.9994L0.331406 16.5855ZM5.51766 21.7712C7.61955 19.6686 9.72206 17.5658 11.8239 15.4646L10.4099 14.0502C8.30786 16.1515 6.20517 18.2546 4.10321 20.3572L5.51766 21.7712ZM10.4097 15.4645L16.7158 21.7712L18.1301 20.3571L11.824 14.0503L10.4097 15.4645ZM16.716 21.7714C17.5243 22.5794 18.4993 22.9119 19.4555 22.8396C20.3842 22.7695 21.2238 22.3248 21.8396 21.709C22.4554 21.0931 22.9 20.2535 22.9701 19.3248C23.0423 18.3687 22.7099 17.3937 21.9019 16.5854L20.4875 17.9995C20.895 18.407 21.0029 18.8153 20.9758 19.1742C20.9466 19.5606 20.7523 19.9678 20.4253 20.2948C20.0983 20.6219 19.6911 20.8162 19.3048 20.8453C18.9459 20.8724 18.5377 20.7646 18.13 20.357L16.716 21.7714ZM21.9018 16.5854C19.7992 14.4828 17.6972 12.3808 15.5938 10.2784L14.18 11.6929C16.2832 13.7951 18.385 15.8969 20.4876 17.9996L21.9018 16.5854ZM15.594 11.6928C17.6972 9.58989 19.7987 7.48777 21.9017 5.38543L20.4877 3.97099C18.3849 6.07317 16.2825 8.17625 14.1799 10.2785L15.594 11.6928ZM21.9017 5.38541C22.7099 4.57748 23.0424 3.60257 22.9703 2.64655C22.9002 1.71793 22.4555 0.878473 21.8396 0.262829C21.2237 -0.352826 20.384 -0.797189 19.4551 -0.866874C18.4989 -0.938613 17.5239 -0.60559 16.7157 0.202915L18.1302 1.61683C18.5382 1.20869 18.9467 1.1006 19.3055 1.12752C19.6918 1.1565 20.0988 1.35056 20.4257 1.67733C20.7526 2.00411 20.9468 2.41106 20.976 2.79708C21.003 3.15569 20.8952 3.56364 20.4877 3.971L21.9017 5.38541Z" fill="#DC3163" mask="url(#path-1-inside-1)"/>
</svg>
