<svg width="32" height="24" viewBox="0 0 32 24" fill="none" xmlns="http://www.w3.org/2000/svg">
<path d="M21.6125 23.149H2.61577C2.02304 23.149 1.45458 22.9135 1.03545 22.4944C0.616323 22.0753 0.380859 21.5068 0.380859 20.9141V3.03478C0.380859 2.44204 0.616323 1.87358 1.03545 1.45446C1.45458 1.03533 2.02304 0.799866 2.61577 0.799866H21.6125C22.2053 0.799866 22.7737 1.03533 23.1929 1.45446C23.612 1.87358 23.8475 2.44204 23.8475 3.03478V7.57166L29.9041 3.2471C30.0709 3.12835 30.2671 3.0577 30.4713 3.04287C30.6755 3.02803 30.8798 3.06959 31.062 3.16299C31.2442 3.25639 31.3972 3.39805 31.5044 3.57251C31.6115 3.74696 31.6687 3.9475 31.6697 4.15224V19.7966C31.6687 20.0014 31.6115 20.2019 31.5044 20.3764C31.3972 20.5508 31.2442 20.6925 31.062 20.7859C30.8798 20.8793 30.6755 20.9208 30.4713 20.906C30.2671 20.8912 30.0709 20.8205 29.9041 20.7018L23.8475 16.3772V20.9141C23.8475 21.5068 23.612 22.0753 23.1929 22.4944C22.7737 22.9135 22.2053 23.149 21.6125 23.149Z" fill="#A5A5A5"/>
</svg>
