<svg width="21" height="21" viewBox="0 0 21 21" fill="none" xmlns="http://www.w3.org/2000/svg">
<path d="M9.54482 2.18053V2.06714L9.43232 2.08131C5.27501 2.60506 2.20339 6.21303 2.34971 10.4006C2.49604 14.5883 5.812 17.973 9.99573 18.2053C14.1795 18.4376 17.8498 15.4407 18.4588 11.2951L18.4598 11.2878V11.2805V11.2645V11.2355V11.2055V11.1765V11.1605V11.1495V11.1355V11.1185V11.0185H18.3598H9.54482V2.18053ZM11.4573 2.08131L11.3448 2.06715V2.18053V9.11853V9.21853H11.4448H18.3828H18.4962L18.482 9.10604C18.0198 5.43482 15.1285 2.54353 11.4573 2.08131ZM10.4447 20.0185C4.97715 20.0185 0.544824 15.5861 0.544824 10.1185C0.544824 4.65091 4.97721 0.21853 10.4448 0.21853C15.9124 0.21853 20.3448 4.65085 20.3448 10.1184C20.3388 15.5836 15.9099 20.0125 10.4447 20.0185Z" fill="#555E82" stroke="white" stroke-width="0.2"/>
</svg>
