<svg width="122" height="122" viewBox="0 0 122 122" fill="none" xmlns="http://www.w3.org/2000/svg">
<path d="M61 114.375C46.8441 114.375 33.2679 108.752 23.2582 98.7418C13.2484 88.7321 7.625 75.1559 7.625 61C7.625 46.8441 13.2484 33.2679 23.2582 23.2582C33.2679 13.2484 46.8441 7.625 61 7.625C75.1559 7.625 88.7321 13.2484 98.7418 23.2582C108.752 33.2679 114.375 46.8441 114.375 61C114.375 75.1559 108.752 88.7321 98.7418 98.7418C88.7321 108.752 75.1559 114.375 61 114.375ZM61 122C77.1782 122 92.6938 115.573 104.134 104.134C115.573 92.6938 122 77.1782 122 61C122 44.8218 115.573 29.3062 104.134 17.8665C92.6938 6.42677 77.1782 0 61 0C44.8218 0 29.3062 6.42677 17.8665 17.8665C6.42677 29.3062 0 44.8218 0 61C0 77.1782 6.42677 92.6938 17.8665 104.134C29.3062 115.573 44.8218 122 61 122V122Z" fill="#DC3163"/>
<path d="M35.4257 35.4257C35.7798 35.0707 36.2006 34.789 36.6637 34.5968C37.1269 34.4046 37.6235 34.3057 38.1249 34.3057C38.6264 34.3057 39.123 34.4046 39.5862 34.5968C40.0493 34.789 40.47 35.0707 40.8242 35.4257L60.9999 55.6091L81.1757 35.4257C81.5302 35.0713 81.951 34.7901 82.4141 34.5982C82.8773 34.4064 83.3737 34.3077 83.8749 34.3077C84.3762 34.3077 84.8726 34.4064 85.3358 34.5982C85.7989 34.7901 86.2197 35.0713 86.5742 35.4257C86.9287 35.7802 87.2099 36.201 87.4017 36.6642C87.5935 37.1273 87.6923 37.6237 87.6923 38.125C87.6923 38.6263 87.5935 39.1227 87.4017 39.5858C87.2099 40.0489 86.9287 40.4698 86.5742 40.8242L66.3908 61L86.5742 81.1757C86.9287 81.5302 87.2099 81.951 87.4017 82.4142C87.5935 82.8773 87.6923 83.3737 87.6923 83.875C87.6923 84.3763 87.5935 84.8727 87.4017 85.3358C87.2099 85.7989 86.9287 86.2198 86.5742 86.5742C86.2197 86.9287 85.7989 87.2099 85.3358 87.4017C84.8726 87.5936 84.3762 87.6923 83.8749 87.6923C83.3737 87.6923 82.8773 87.5936 82.4141 87.4017C81.951 87.2099 81.5302 86.9287 81.1757 86.5742L60.9999 66.3909L40.8242 86.5742C40.4697 86.9287 40.0489 87.2099 39.5858 87.4017C39.1226 87.5936 38.6262 87.6923 38.1249 87.6923C37.6237 87.6923 37.1273 87.5936 36.6641 87.4017C36.201 87.2099 35.7802 86.9287 35.4257 86.5742C35.0712 86.2198 34.79 85.7989 34.5982 85.3358C34.4064 84.8727 34.3076 84.3763 34.3076 83.875C34.3076 83.3737 34.4064 82.8773 34.5982 82.4142C34.79 81.951 35.0712 81.5302 35.4257 81.1757L55.6091 61L35.4257 40.8242C35.0707 40.4701 34.789 40.0494 34.5968 39.5862C34.4046 39.123 34.3056 38.6265 34.3056 38.125C34.3056 37.6235 34.4046 37.127 34.5968 36.6638C34.789 36.2006 35.0707 35.7799 35.4257 35.4257Z" fill="#DC3163"/>
</svg>
