<svg width="70" height="99" viewBox="0 0 70 99" fill="none" xmlns="http://www.w3.org/2000/svg">
<path d="M68.9554 26.1696L44.5804 1.79464C43.884 1.09821 43.1875 0.75 42.1429 0.75H7.32146C3.49111 0.75 0.357178 3.88393 0.357178 7.71429V91.2857C0.357178 95.1161 3.49111 98.25 7.32146 98.25H63.0357C66.8661 98.25 70 95.1161 70 91.2857V28.6071C70 27.5625 69.6518 26.8661 68.9554 26.1696ZM42.1429 9.10714L61.6429 28.6071H42.1429V9.10714ZM63.0357 91.2857H7.32146V7.71429H35.1786V28.6071C35.1786 32.4375 38.3125 35.5714 42.1429 35.5714H63.0357V91.2857Z" fill="#6FC7BA"/>
<path d="M14.2856 70.3928H56.0714V77.3571H14.2856V70.3928Z" fill="#6FC7BA"/>
<path d="M14.2856 49.5H56.0714V56.4643H14.2856V49.5Z" fill="#6FC7BA"/>
</svg>
