<svg width="8" height="7" viewBox="0 0 8 7" fill="none" xmlns="http://www.w3.org/2000/svg">
<path d="M7.70677 2.41424V5.81617C7.70677 6.40432 7.23017 6.88092 6.64202 6.88092H1.06475C0.782361 6.88092 0.511538 6.76874 0.311858 6.56906C0.112179 6.36938 0 6.09856 0 5.81617V2.41424L3.73129 4.46668C3.80735 4.50845 3.89962 4.50845 3.97548 4.46668L7.70677 2.41404V2.41424ZM6.64202 0.796631C6.91996 0.796657 7.18688 0.905368 7.38576 1.09954C7.58463 1.29372 7.69969 1.55796 7.70636 1.83583L3.85338 3.95519L0.00040559 1.83563L0.000811277 1.81737C0.0121691 1.54282 0.129232 1.28329 0.327519 1.09305C0.525807 0.902816 0.789964 0.796605 1.06475 0.796631H6.64202Z" fill="#4C567C"/>
</svg>
