<svg width="24" height="24" viewBox="0 0 24 24" fill="none" xmlns="http://www.w3.org/2000/svg">
<path fill-rule="evenodd" clip-rule="evenodd" d="M17.4534 9.81734C17.4534 10.8201 17.2559 11.8131 16.8722 12.7395C16.4884 13.666 15.9259 14.5078 15.2169 15.2169C14.5078 15.9259 13.666 16.4884 12.7395 16.8722C11.8131 17.2559 10.8201 17.4534 9.81734 17.4534C8.81456 17.4534 7.82159 17.2559 6.89514 16.8722C5.96869 16.4884 5.1269 15.9259 4.41782 15.2169C3.70875 14.5078 3.14628 13.666 2.76253 12.7395C2.37878 11.8131 2.18127 10.8201 2.18127 9.81734C2.18127 7.79213 2.98578 5.84986 4.41782 4.41782C5.84986 2.98578 7.79213 2.18127 9.81734 2.18127C11.8426 2.18127 13.7848 2.98578 15.2169 4.41782C16.6489 5.84986 17.4534 7.79213 17.4534 9.81734ZM15.9458 17.4883C13.9854 19.0546 11.4996 19.8107 8.99905 19.6014C6.4985 19.3922 4.17298 18.2334 2.50011 16.3631C0.827229 14.4928 -0.0660213 12.0529 0.00380586 9.54461C0.073633 7.03629 1.10124 4.64991 2.87557 2.87557C4.64991 1.10124 7.03629 0.073633 9.54461 0.00380586C12.0529 -0.0660213 14.4928 0.827229 16.3631 2.50011C18.2334 4.17298 19.3922 6.4985 19.6014 8.99905C19.8107 11.4996 19.0546 13.9854 17.4883 15.9458L23.6801 22.1354C23.7815 22.2368 23.862 22.3573 23.9169 22.4898C23.9717 22.6223 24 22.7643 24 22.9078C24 23.0512 23.9717 23.1932 23.9169 23.3257C23.862 23.4583 23.7815 23.5787 23.6801 23.6801C23.5787 23.7815 23.4583 23.862 23.3257 23.9169C23.1932 23.9717 23.0512 24 22.9078 24C22.7643 24 22.6223 23.9717 22.4898 23.9169C22.3573 23.862 22.2368 23.7815 22.1354 23.6801L15.948 17.4883H15.9458Z" fill="#808080"/>
</svg>
