<svg width="18" height="22" viewBox="0 0 18 22" fill="none" xmlns="http://www.w3.org/2000/svg">
<path d="M8.54745 21.2587C7.12587 20.0461 5.80819 18.7167 4.6082 17.2845C2.8074 15.1337 0.668946 11.9305 0.668946 8.87816C0.66735 5.69024 2.58708 2.81553 5.53231 1.5955C8.47754 0.375464 11.8677 1.05058 14.1209 3.30581C15.6026 4.7809 16.4326 6.78742 16.426 8.87816C16.426 11.9305 14.2875 15.1337 12.4867 17.2845C11.2867 18.7167 9.96903 20.0461 8.54745 21.2587ZM8.54745 5.50166C7.34114 5.50166 6.22647 6.14522 5.62331 7.18991C5.02016 8.23461 5.02016 9.52172 5.62331 10.5664C6.22647 11.6111 7.34114 12.2547 8.54745 12.2547C10.4122 12.2547 11.9239 10.743 11.9239 8.87816C11.9239 7.01337 10.4122 5.50166 8.54745 5.50166Z" stroke="#555E82" stroke-width="1.25892" stroke-linejoin="round"/>
</svg>
