<svg width="102" height="158" viewBox="0 0 102 158" fill="none" xmlns="http://www.w3.org/2000/svg">
<path d="M90.271 67.5264V84.3567C90.271 94.7719 86.1336 104.761 78.7689 112.125C71.4042 119.49 61.4155 123.627 51.0002 123.627C40.585 123.627 30.5963 119.49 23.2316 112.125C15.8669 104.761 11.7295 94.7719 11.7295 84.3567V67.5264H0.509277V84.3567C0.515171 96.7722 5.09528 108.75 13.3745 118.002C21.6537 127.254 33.0515 133.132 45.3901 134.511V146.068H22.9497V157.288H79.0508V146.068H56.6104V134.511C68.949 133.132 80.3468 127.254 88.626 118.002C96.9052 108.75 101.485 96.7722 101.491 84.3567V67.5264H90.271Z" fill="#6FC7BA"/>
<path d="M50.9954 112.41C58.4348 112.41 65.5696 109.455 70.8301 104.194C76.0906 98.9338 79.0459 91.7991 79.0459 84.3596V28.2585C79.0459 20.8191 76.0906 13.6843 70.8301 8.42382C65.5696 3.16332 58.4348 0.208008 50.9954 0.208008C43.5559 0.208008 36.4211 3.16332 31.1606 8.42382C25.9001 13.6843 22.9448 20.8191 22.9448 28.2585V84.3596C22.9448 91.7991 25.9001 98.9338 31.1606 104.194C36.4211 109.455 43.5559 112.41 50.9954 112.41Z" fill="#6FC7BA"/>
</svg>
