<svg width="23" height="35" viewBox="0 0 23 35" fill="none" xmlns="http://www.w3.org/2000/svg">
<path d="M19.679 15.3244V18.9267C19.679 21.1559 18.7935 23.2938 17.2172 24.8701C15.6409 26.4465 13.5029 27.332 11.2737 27.332C9.04444 27.332 6.90651 26.4465 5.3302 24.8701C3.75389 23.2938 2.86833 21.1559 2.86833 18.9267V15.3244H0.466797V18.9267C0.468058 21.584 1.44837 24.1478 3.22041 26.128C4.99246 28.1083 7.432 29.3662 10.0729 29.6615V32.1351H5.26986V34.5366H17.2775V32.1351H12.4744V29.6615C15.1154 29.3662 17.5549 28.1083 19.3269 26.128C21.099 24.1478 22.0793 21.584 22.0806 18.9267V15.3244H19.679Z" fill="#A5A5A5"/>
<path d="M11.2734 24.9305C12.8657 24.9305 14.3928 24.298 15.5187 23.172C16.6446 22.0461 17.2772 20.519 17.2772 18.9267V6.91904C17.2772 5.32673 16.6446 3.79964 15.5187 2.6737C14.3928 1.54777 12.8657 0.915222 11.2734 0.915222C9.68104 0.915222 8.15395 1.54777 7.02801 2.6737C5.90207 3.79964 5.26953 5.32673 5.26953 6.91904V18.9267C5.26953 20.519 5.90207 22.0461 7.02801 23.172C8.15395 24.298 9.68104 24.9305 11.2734 24.9305Z" fill="#A5A5A5"/>
</svg>
