<svg width="28" height="26" viewBox="0 0 28 26" fill="none" xmlns="http://www.w3.org/2000/svg">
<path d="M9.53942 11.7316C10.6036 11.7316 11.644 11.416 12.5288 10.8248C13.4137 10.2335 14.1034 9.39317 14.5106 8.40996C14.9179 7.42675 15.0244 6.34485 14.8168 5.30108C14.6092 4.25731 14.0967 3.29855 13.3442 2.54603C12.5917 1.79351 11.6329 1.28104 10.5892 1.07342C9.54539 0.865806 8.46349 0.972363 7.48028 1.37962C6.49707 1.78688 5.65671 2.47655 5.06546 3.36142C4.47421 4.24628 4.15864 5.2866 4.15864 6.35082C4.15864 7.77789 4.72554 9.14652 5.73463 10.1556C6.74372 11.1647 8.11235 11.7316 9.53942 11.7316ZM20.301 14.422C21.0992 14.422 21.8794 14.1853 22.543 13.7419C23.2067 13.2984 23.7239 12.6682 24.0294 11.9308C24.3348 11.1934 24.4148 10.3819 24.259 9.5991C24.1033 8.81628 23.719 8.0972 23.1546 7.53282C22.5902 6.96843 21.8711 6.58408 21.0883 6.42836C20.3055 6.27265 19.494 6.35257 18.7566 6.65801C18.0192 6.96346 17.389 7.48071 16.9455 8.14436C16.5021 8.808 16.2654 9.58824 16.2654 10.3864C16.2654 11.4567 16.6906 12.4832 17.4474 13.24C18.2042 13.9968 19.2307 14.422 20.301 14.422ZM25.6818 23.8384C26.0385 23.8384 26.3807 23.6966 26.633 23.4444C26.8853 23.1921 27.027 22.8499 27.027 22.4932C27.0259 21.236 26.6725 20.0042 26.0068 18.9377C25.3411 17.8711 24.3898 17.0125 23.2609 16.4593C22.1319 15.906 20.8705 15.6802 19.6198 15.8075C18.369 15.9349 17.179 16.4102 16.1847 17.1797C14.8671 15.8672 13.1904 14.9743 11.366 14.6136C9.54156 14.2528 7.6512 14.4404 5.93326 15.1526C4.21531 15.8648 2.74674 17.0698 1.71272 18.6156C0.678706 20.1613 0.125563 21.9787 0.123047 23.8384C0.123047 24.1951 0.264772 24.5373 0.517046 24.7896C0.769319 25.0418 1.11147 25.1836 1.46824 25.1836H17.6106C17.9674 25.1836 18.3095 25.0418 18.5618 24.7896C18.8141 24.5373 18.9558 24.1951 18.9558 23.8384" fill="#A5A5A5"/>
</svg>
