<svg width="18" height="18" viewBox="0 0 18 18" fill="none" xmlns="http://www.w3.org/2000/svg">
<mask id="path-1-inside-1_2433_473" fill="white">
<path d="M15.9452 7.4934L10.6734 7.43984C10.691 5.68299 10.7092 3.92502 10.727 2.16775C10.7477 0.134736 7.59579 0.103197 7.57395 2.13563C7.55691 3.89248 7.53885 5.65088 7.52025 7.40729C5.76302 7.3901 4.0058 7.3722 2.24859 7.3536C0.216703 7.33346 0.184599 10.4851 2.21647 10.5066C3.97388 10.5242 5.73172 10.542 7.48856 10.5602L7.43457 15.8321C7.41415 17.8649 10.5666 17.8967 10.5876 15.8642C10.6055 14.1065 10.6234 12.3494 10.6409 10.5916C12.3987 10.6096 14.1561 10.6272 15.9138 10.6454C17.946 10.6664 17.9782 7.51411 15.9445 7.49382"/>
</mask>
<path d="M15.9452 7.4934L10.6734 7.43984C10.691 5.68299 10.7092 3.92502 10.727 2.16775C10.7477 0.134736 7.59579 0.103197 7.57395 2.13563C7.55691 3.89248 7.53885 5.65088 7.52025 7.40729C5.76302 7.3901 4.0058 7.3722 2.24859 7.3536C0.216703 7.33346 0.184599 10.4851 2.21647 10.5066C3.97388 10.5242 5.73172 10.542 7.48856 10.5602L7.43457 15.8321C7.41415 17.8649 10.5666 17.8967 10.5876 15.8642C10.6055 14.1065 10.6234 12.3494 10.6409 10.5916C12.3987 10.6096 14.1561 10.6272 15.9138 10.6454C17.946 10.6664 17.9782 7.51411 15.9445 7.49382" fill="white"/>
<path d="M10.6734 7.43984L10.2734 7.43583L10.2694 7.83576L10.6693 7.83982L10.6734 7.43984ZM10.727 2.16775L10.327 2.16368L10.327 2.16371L10.727 2.16775ZM7.57395 2.13563L7.17397 2.13134L7.17397 2.13175L7.57395 2.13563ZM7.52025 7.40729L7.51634 7.80728L7.916 7.81119L7.92023 7.41153L7.52025 7.40729ZM2.24859 7.3536L2.25282 6.95362L2.25255 6.95361L2.24859 7.3536ZM2.21647 10.5066L2.21223 10.9066L2.21246 10.9066L2.21647 10.5066ZM7.48856 10.5602L7.88854 10.5643L7.89263 10.1643L7.4927 10.1602L7.48856 10.5602ZM7.43457 15.8321L7.03459 15.828L7.03459 15.8281L7.43457 15.8321ZM10.5876 15.8642L10.9876 15.8684L10.9876 15.8683L10.5876 15.8642ZM10.6409 10.5916L10.645 10.1916L10.2449 10.1875L10.2409 10.5876L10.6409 10.5916ZM15.9138 10.6454L15.9097 11.0454L15.9097 11.0454L15.9138 10.6454ZM15.9493 7.09342L10.6775 7.03986L10.6693 7.83982L15.9411 7.89338L15.9493 7.09342ZM11.0734 7.44385C11.091 5.68696 11.1092 3.92926 11.1269 2.17179L10.327 2.16371C10.3092 3.92078 10.291 5.67903 10.2734 7.43583L11.0734 7.44385ZM11.1269 2.17183C11.1333 1.55033 10.893 1.05475 10.51 0.718614C10.1353 0.389724 9.64621 0.231972 9.17045 0.227168C8.69469 0.222365 8.20254 0.370209 7.82112 0.691331C7.43131 1.01951 7.18065 1.50996 7.17397 2.13134L7.97393 2.13993C7.97817 1.74509 8.12969 1.47732 8.33635 1.30332C8.55141 1.12226 8.85002 1.02397 9.16238 1.02713C9.47473 1.03028 9.77114 1.13458 9.98226 1.31987C10.1851 1.49792 10.331 1.76866 10.327 2.16368L11.1269 2.17183ZM7.17397 2.13175C7.15693 3.88845 7.13887 5.64673 7.12027 7.40306L7.92023 7.41153C7.93883 5.65504 7.95689 3.89651 7.97393 2.13951L7.17397 2.13175ZM7.52416 7.00731C5.76704 6.99012 4.00993 6.97223 2.25283 6.95362L2.24435 7.75357C4.00167 7.77218 5.759 7.79008 7.51634 7.80728L7.52416 7.00731ZM2.25255 6.95361C1.63128 6.94746 1.13591 7.18795 0.799936 7.57095C0.471206 7.9457 0.313487 8.4347 0.308641 8.9104C0.303796 9.3861 0.45152 9.87822 0.772533 10.2596C1.10061 10.6494 1.59096 10.9 2.21223 10.9066L2.22071 10.1066C1.82604 10.1024 1.55845 9.95102 1.38459 9.74445C1.20365 9.52948 1.10542 9.23092 1.1086 8.91855C1.11178 8.60617 1.21608 8.3097 1.40134 8.09851C1.57936 7.89557 1.84996 7.74967 2.24463 7.75358L2.25255 6.95361ZM2.21246 10.9066C3.96985 10.9242 5.72764 10.942 7.48442 10.9602L7.4927 10.1602C5.7358 10.142 3.97791 10.1243 2.22048 10.1066L2.21246 10.9066ZM7.08858 10.5561L7.03459 15.828L7.83455 15.8362L7.88854 10.5643L7.08858 10.5561ZM7.03459 15.8281C7.02835 16.4496 7.26881 16.9451 7.65185 17.2812C8.02664 17.61 8.51572 17.7678 8.9915 17.7726C9.46727 17.7774 9.95945 17.6296 10.3408 17.3085C10.7306 16.9803 10.9812 16.4898 10.9876 15.8684L10.1876 15.8601C10.1835 16.2549 10.0321 16.5226 9.82557 16.6965C9.61061 16.8775 9.31202 16.9758 8.99961 16.9726C8.6872 16.9695 8.39069 16.8652 8.17948 16.6798C7.97652 16.5018 7.83058 16.231 7.83455 15.8361L7.03459 15.8281ZM10.9876 15.8683C11.0055 14.1106 11.0234 12.3534 11.0409 10.5956L10.2409 10.5876C10.2234 12.3454 10.2055 14.1025 10.1876 15.8602L10.9876 15.8683ZM10.6368 10.9916C12.3948 11.0096 14.1519 11.0272 15.9097 11.0454L15.9179 10.2455C14.1603 10.2273 12.4026 10.2096 10.645 10.1916L10.6368 10.9916ZM15.9097 11.0454C16.531 11.0518 17.0265 10.8115 17.3626 10.4285C17.6914 10.0538 17.8491 9.56481 17.8538 9.08909C17.8586 8.61338 17.7107 8.12125 17.3893 7.73998C17.0609 7.35031 16.5701 7.10004 15.9485 7.09384L15.9405 7.8938C16.3357 7.89774 16.6036 8.04912 16.7776 8.25556C16.9587 8.47039 17.057 8.76884 17.0539 9.08111C17.0508 9.39339 16.9465 9.68977 16.7613 9.90087C16.5833 10.1037 16.3127 10.2495 15.9179 10.2455L15.9097 11.0454Z" fill="#6FC7BA" mask="url(#path-1-inside-1_2433_473)"/>
</svg>
