<svg width="25" height="24" viewBox="0 0 25 24" fill="none" xmlns="http://www.w3.org/2000/svg">
<path d="M24.0064 8.23948L16.6609 7.17194L13.3773 0.514978C13.2876 0.332714 13.14 0.185167 12.9578 0.0954821C12.5007 -0.130178 11.9452 0.0578722 11.7166 0.514978L8.43299 7.17194L1.08749 8.23948C0.884973 8.26841 0.699816 8.36388 0.558056 8.50853C0.386675 8.68468 0.292237 8.92167 0.295492 9.16741C0.298746 9.41315 0.399428 9.64755 0.575414 9.8191L5.88999 15.0006L4.63439 22.3172C4.60495 22.4874 4.62378 22.6624 4.68876 22.8225C4.75374 22.9825 4.86226 23.1211 5.00201 23.2226C5.14177 23.3241 5.30717 23.3844 5.47946 23.3967C5.65175 23.409 5.82403 23.3728 5.97678 23.2921L12.5469 19.8378L19.1171 23.2921C19.2965 23.3876 19.5048 23.4194 19.7044 23.3847C20.2078 23.2979 20.5463 22.8206 20.4595 22.3172L19.2039 15.0006L24.5185 9.8191C24.6631 9.67734 24.7586 9.49218 24.7875 9.28966C24.8656 8.78338 24.5127 8.3147 24.0064 8.23948Z" fill="#6FC7BA"/>
</svg>
