<svg width="129" height="121" viewBox="0 0 129 121" fill="none" xmlns="http://www.w3.org/2000/svg">
<path fill-rule="evenodd" clip-rule="evenodd" d="M35.5234 10.8199C43.5817 3.87109 53.8595 0.0333668 64.5 0C86.1881 0 104.192 16.125 106.151 36.9182C118.986 38.7322 129 49.4796 129 62.6698C129 77.1501 116.922 88.6875 102.289 88.6875H80.625C79.5558 88.6875 78.5305 88.2628 77.7745 87.5068C77.0185 86.7508 76.5938 85.7254 76.5938 84.6562C76.5938 83.5871 77.0185 82.5617 77.7745 81.8057C78.5305 81.0497 79.5558 80.625 80.625 80.625H102.297C112.706 80.625 120.938 72.4657 120.938 62.6698C120.938 52.8658 112.714 44.7066 102.289 44.7066H98.2577V40.6753C98.2658 22.7766 83.2695 8.0625 64.5 8.0625C55.7915 8.09729 47.382 11.2426 40.7882 16.9312C34.6849 22.188 31.4921 28.5251 31.4921 33.4997V37.1117L27.9043 37.5067C16.641 38.7403 8.0625 47.988 8.0625 59.0014C8.0625 70.8291 17.9794 80.625 30.4843 80.625H48.375C49.4442 80.625 50.4695 81.0497 51.2255 81.8057C51.9815 82.5617 52.4062 83.5871 52.4062 84.6562C52.4062 85.7254 51.9815 86.7508 51.2255 87.5068C50.4695 88.2628 49.4442 88.6875 48.375 88.6875H30.4843C13.7707 88.6875 0 75.5134 0 59.0014C0 44.7872 10.2071 33.0159 23.7199 30.0328C24.8728 23.0749 29.3475 16.1411 35.5234 10.8199V10.8199Z" fill="#DEDEDE"/>
<path fill-rule="evenodd" clip-rule="evenodd" d="M61.6461 33.4269C62.0206 33.0515 62.4654 32.7537 62.9552 32.5504C63.445 32.3472 63.97 32.2426 64.5002 32.2426C65.0305 32.2426 65.5555 32.3472 66.0453 32.5504C66.535 32.7537 66.9799 33.0515 67.3544 33.4269L91.5419 57.6144C92.2988 58.3714 92.7241 59.3981 92.7241 60.4686C92.7241 61.5391 92.2988 62.5657 91.5419 63.3227C90.7849 64.0797 89.7582 64.5049 88.6877 64.5049C87.6172 64.5049 86.5906 64.0797 85.8336 63.3227L68.5315 46.0125V116.906C68.5315 117.975 68.1068 119.001 67.3508 119.757C66.5948 120.513 65.5694 120.937 64.5002 120.937C63.4311 120.937 62.4057 120.513 61.6497 119.757C60.8937 119.001 60.469 117.975 60.469 116.906V46.0125L43.1669 63.3227C42.4099 64.0797 41.3832 64.5049 40.3127 64.5049C39.2422 64.5049 38.2156 64.0797 37.4586 63.3227C36.7017 62.5657 36.2764 61.5391 36.2764 60.4686C36.2764 59.3981 36.7017 58.3714 37.4586 57.6144L61.6461 33.4269Z" fill="#DEDEDE"/>
</svg>
