<svg width="20" height="14" viewBox="0 0 20 14" fill="none" xmlns="http://www.w3.org/2000/svg">
<path d="M13.5714 14H1.42857C1.04969 14 0.686328 13.8525 0.418419 13.5899C0.15051 13.3274 0 12.9713 0 12.6V1.4C0 1.0287 0.15051 0.672601 0.418419 0.41005C0.686328 0.1475 1.04969 0 1.42857 0H13.5714C13.9503 0 14.3137 0.1475 14.5816 0.41005C14.8495 0.672601 15 1.0287 15 1.4V4.242L18.8714 1.533C18.978 1.45861 19.1034 1.41436 19.234 1.40507C19.3645 1.39577 19.4951 1.4218 19.6116 1.48031C19.728 1.53882 19.8259 1.62756 19.8944 1.73684C19.9629 1.84613 19.9994 1.97175 20 2.1V11.9C19.9994 12.0283 19.9629 12.1539 19.8944 12.2632C19.8259 12.3724 19.728 12.4612 19.6116 12.5197C19.4951 12.5782 19.3645 12.6042 19.234 12.5949C19.1034 12.5856 18.978 12.5414 18.8714 12.467L15 9.758V12.6C15 12.9713 14.8495 13.3274 14.5816 13.5899C14.3137 13.8525 13.9503 14 13.5714 14Z" fill="white"/>
</svg>
