<svg width="34" height="34" viewBox="0 0 34 34" fill="none" xmlns="http://www.w3.org/2000/svg">
<path d="M32.17 30.3555H1.58C0.844344 30.3555 0.25 30.9498 0.25 31.6855V33.1817C0.25 33.3646 0.399625 33.5142 0.5825 33.5142H33.1675C33.3504 33.5142 33.5 33.3646 33.5 33.1817V31.6855C33.5 30.9498 32.9057 30.3555 32.17 30.3555ZM6.30566 26.8642C6.38878 26.8642 6.47191 26.8559 6.55503 26.8434L13.5458 25.6173C13.629 25.6007 13.7079 25.5633 13.7661 25.501L31.3845 7.88263C31.423 7.84418 31.4536 7.7985 31.4744 7.74823C31.4953 7.69795 31.506 7.64405 31.506 7.58961C31.506 7.53518 31.4953 7.48128 31.4744 7.431C31.4536 7.38072 31.423 7.33505 31.3845 7.2966L24.4768 0.384753C24.3978 0.305784 24.2939 0.264221 24.1817 0.264221C24.0695 0.264221 23.9656 0.305784 23.8866 0.384753L6.26825 18.0031C6.20591 18.0654 6.1685 18.1403 6.15188 18.2234L4.92578 25.2142C4.88535 25.4368 4.8998 25.666 4.96787 25.8818C5.03595 26.0976 5.1556 26.2936 5.31647 26.4528C5.59078 26.7188 5.93575 26.8642 6.30566 26.8642Z" fill="#6FC7BA"/>
</svg>
