<svg width="18" height="19" viewBox="0 0 18 19" fill="none" xmlns="http://www.w3.org/2000/svg">
<path fill-rule="evenodd" clip-rule="evenodd" d="M9.12207 0.59082C8.46203 0.59082 7.92696 1.12589 7.92696 1.78593V8.27364L1.43925 8.27364C0.779208 8.27364 0.244141 8.80871 0.244141 9.46875C0.244141 10.1288 0.779208 10.6639 1.43925 10.6639H7.92696V17.1516C7.92696 17.8116 8.46203 18.3467 9.12207 18.3467C9.78211 18.3467 10.3172 17.8116 10.3172 17.1516V10.6639H16.8049C17.4649 10.6639 18 10.1288 18 9.46875C18 8.80871 17.4649 8.27364 16.8049 8.27364L10.3172 8.27364V1.78593C10.3172 1.12589 9.78211 0.59082 9.12207 0.59082Z" fill="white"/>
</svg>
