<svg width="23" height="35" viewBox="0 0 23 35" fill="none" xmlns="http://www.w3.org/2000/svg">
<path d="M19.71 15.3243V18.9266C19.71 21.1559 18.8245 23.2938 17.2482 24.8701C15.6719 26.4464 13.5339 27.332 11.3047 27.332C9.07545 27.332 6.93751 26.4464 5.3612 24.8701C3.78489 23.2938 2.89933 21.1559 2.89933 18.9266V15.3243H0.497803V18.9266C0.499064 21.584 1.47937 24.1477 3.25142 26.128C5.02347 28.1083 7.46301 29.3662 10.1039 29.6615V32.135H5.30086V34.5366H17.3085V32.135H12.5054V29.6615C15.1464 29.3662 17.5859 28.1083 19.3579 26.128C21.13 24.1477 22.1103 21.584 22.1116 18.9266V15.3243H19.71Z" fill="#A5A5A5"/>
<path d="M11.3044 24.9305C12.8967 24.9305 14.4238 24.2979 15.5497 23.172C16.6756 22.046 17.3082 20.5189 17.3082 18.9266V6.91898C17.3082 5.32667 16.6756 3.79958 15.5497 2.67364C14.4238 1.5477 12.8967 0.915161 11.3044 0.915161C9.71205 0.915161 8.18495 1.5477 7.05902 2.67364C5.93308 3.79958 5.30054 5.32667 5.30054 6.91898V18.9266C5.30054 20.5189 5.93308 22.046 7.05902 23.172C8.18495 24.2979 9.71205 24.9305 11.3044 24.9305Z" fill="#A5A5A5"/>
</svg>
