<svg width="24" height="27" viewBox="0 0 24 27" fill="none" xmlns="http://www.w3.org/2000/svg">
<path d="M22.4843 19.2737C20.9536 17.4002 19.8729 16.4464 19.8729 11.2814C19.8729 6.55141 17.4575 4.86628 15.4696 4.04786C15.2055 3.93937 14.9569 3.6902 14.8765 3.41899C14.5278 2.23218 13.5502 1.18665 12.2507 1.18665C10.9512 1.18665 9.97307 2.23278 9.62794 3.42018C9.54746 3.69438 9.2989 3.93937 9.03483 4.04786C7.0445 4.86747 4.63155 6.54665 4.63155 11.2814C4.62857 16.4464 3.54786 17.4002 2.01712 19.2737C1.38288 20.0498 1.93843 21.2151 3.04775 21.2151H21.4596C22.563 21.2151 23.115 20.0462 22.4843 19.2737Z" stroke="black" stroke-width="1.77168" stroke-linecap="round" stroke-linejoin="round"/>
<path d="M16.0656 21.215V22.1688C16.0656 23.1806 15.6637 24.1509 14.9483 24.8663C14.2328 25.5818 13.2625 25.9837 12.2507 25.9837C11.2389 25.9837 10.2685 25.5818 9.5531 24.8663C8.83766 24.1509 8.43573 23.1806 8.43573 22.1688V21.215" stroke="black" stroke-width="1.77168" stroke-linecap="round" stroke-linejoin="round"/>
</svg>
