<svg width="232" height="135" viewBox="0 0 232 135" fill="none" xmlns="http://www.w3.org/2000/svg">
<path fill-rule="evenodd" clip-rule="evenodd" d="M144.143 108.15C139.767 108.358 135.294 107.137 131.471 104.368L89.4432 73.92L35.1404 128.223C27.3299 136.033 14.6666 136.033 6.85614 128.223L5.85787 127.224C-1.95262 119.414 -1.95262 106.751 5.85786 98.9402L72.5613 32.2368C75.4575 29.3405 79.0211 27.5182 82.7571 26.7699C88.9007 24.3408 96.1164 25.0048 101.863 29.168L143.46 59.3037L196.444 6.31978C204.255 -1.49071 216.918 -1.49071 224.728 6.31978L225.727 7.31805C233.537 15.1285 233.537 27.7918 225.727 35.6023L159.023 102.306C154.93 106.399 149.504 108.347 144.143 108.15Z" fill="#DC3163"/>
</svg>
