<svg width="82" height="82" viewBox="0 0 82 82" fill="none" xmlns="http://www.w3.org/2000/svg">
<path d="M80.8947 41.2117H75.1953C74.7475 41.2117 74.3811 41.5781 74.3811 42.0259V74.594H7.6164V7.82935H40.1845C40.6323 7.82935 40.9987 7.46296 40.9987 7.01515V1.31573C40.9987 0.867917 40.6323 0.501526 40.1845 0.501526H3.54539C1.74396 0.501526 0.288574 1.95691 0.288574 3.75834V78.665C0.288574 80.4665 1.74396 81.9218 3.54539 81.9218H78.4521C80.2535 81.9218 81.7089 80.4665 81.7089 78.665V42.0259C81.7089 41.5781 81.3425 41.2117 80.8947 41.2117Z" fill="#6FC7BA"/>
<path d="M25.1117 43.5423L24.9183 55.6434C24.9081 56.5492 25.6409 57.2922 26.5467 57.2922H26.5874L38.5969 56.997C38.8005 56.9869 39.004 56.9055 39.1465 56.763L81.4749 14.5262C81.7904 14.2107 81.7904 13.6916 81.4749 13.3761L68.8242 0.73561C68.6614 0.572769 68.4578 0.501526 68.2441 0.501526C68.0304 0.501526 67.8268 0.582947 67.664 0.73561L25.3458 42.9724C25.1988 43.1261 25.1152 43.3297 25.1117 43.5423ZM31.5744 45.9442L68.2441 9.35599L72.8444 13.9461L36.1543 50.5547L31.5032 50.6666L31.5744 45.9442Z" fill="#6FC7BA"/>
</svg>
