<svg width="18" height="18" viewBox="0 0 18 18" fill="none" xmlns="http://www.w3.org/2000/svg">
<path d="M17.8192 9.0001H16.5593C16.4603 9.0001 16.3793 9.08109 16.3793 9.18009V16.3798H1.61993V1.62042H8.81962C8.91861 1.62042 8.99961 1.53942 8.99961 1.44043V0.18048C8.99961 0.0814848 8.91861 0.000488281 8.81962 0.000488281H0.719969C0.321736 0.000488281 0 0.322224 0 0.720457V17.2797C0 17.678 0.321736 17.9997 0.719969 17.9997H17.2792C17.6775 17.9997 17.9992 17.678 17.9992 17.2797V9.18009C17.9992 9.08109 17.9182 9.0001 17.8192 9.0001Z" fill="white"/>
<path d="M5.4876 9.51533L5.44485 12.1905C5.4426 12.3907 5.60459 12.5549 5.80483 12.5549H5.81383L8.46872 12.4897C8.51371 12.4874 8.55871 12.4694 8.59021 12.4379L17.9476 3.10085C18.0173 3.03111 18.0173 2.91636 17.9476 2.84661L15.1509 0.0522361C15.1149 0.0162377 15.0699 0.000488281 15.0227 0.000488281C14.9754 0.000488281 14.9304 0.0184876 14.8944 0.0522361L5.53934 9.38933C5.50685 9.42332 5.48837 9.46831 5.4876 9.51533ZM6.91628 10.0463L15.0227 1.9579L16.0396 2.97261L7.92874 11.0655L6.90053 11.0903L6.91628 10.0463Z" fill="white"/>
</svg>
