<svg width="34" height="34" viewBox="0 0 34 34" fill="none" xmlns="http://www.w3.org/2000/svg">
<path d="M32.368 30.3554H1.778C1.04234 30.3554 0.447998 30.9498 0.447998 31.6854V33.1817C0.447998 33.3645 0.597623 33.5142 0.780498 33.5142H33.3655C33.5484 33.5142 33.698 33.3645 33.698 33.1817V31.6854C33.698 30.9498 33.1037 30.3554 32.368 30.3554ZM6.50365 26.8642C6.58678 26.8642 6.66991 26.8558 6.75303 26.8434L13.7438 25.6173C13.827 25.6007 13.9059 25.5633 13.9641 25.5009L31.5825 7.88257C31.621 7.84412 31.6516 7.79844 31.6724 7.74816C31.6933 7.69788 31.704 7.64398 31.704 7.58955C31.704 7.53512 31.6933 7.48122 31.6724 7.43094C31.6516 7.38066 31.621 7.33499 31.5825 7.29654L24.6748 0.384691C24.5958 0.305723 24.4919 0.26416 24.3797 0.26416C24.2675 0.26416 24.1636 0.305723 24.0846 0.384691L6.46625 18.003C6.4039 18.0654 6.3665 18.1402 6.34987 18.2233L5.12378 25.2141C5.08335 25.4368 5.09779 25.6659 5.16587 25.8818C5.23394 26.0976 5.3536 26.2935 5.51447 26.4527C5.78878 26.7187 6.13375 26.8642 6.50365 26.8642Z" fill="#6FC7BA"/>
</svg>
