<svg width="19" height="19" viewBox="0 0 19 19" fill="none" xmlns="http://www.w3.org/2000/svg">
<path d="M17.4945 16.8394H0.751399C0.348745 16.8394 0.0234375 17.1647 0.0234375 17.5674V18.3863C0.0234375 18.4864 0.105333 18.5683 0.205428 18.5683H18.0405C18.1406 18.5683 18.2225 18.4864 18.2225 18.3863V17.5674C18.2225 17.1647 17.8972 16.8394 17.4945 16.8394ZM3.33794 14.9285C3.38343 14.9285 3.42893 14.9239 3.47443 14.9171L7.30078 14.246C7.34627 14.2369 7.3895 14.2165 7.42135 14.1823L17.0646 4.53912C17.0856 4.51807 17.1024 4.49307 17.1138 4.46555C17.1252 4.43803 17.1311 4.40853 17.1311 4.37874C17.1311 4.34894 17.1252 4.31944 17.1138 4.29192C17.1024 4.2644 17.0856 4.2394 17.0646 4.21836L13.2837 0.435234C13.2405 0.392012 13.1836 0.369263 13.1222 0.369263C13.0608 0.369263 13.0039 0.392012 12.9607 0.435234L3.31746 10.0784C3.28334 10.1126 3.26287 10.1535 3.25377 10.199L2.58268 14.0254C2.56055 14.1472 2.56845 14.2727 2.60571 14.3908C2.64297 14.5089 2.70847 14.6162 2.79652 14.7033C2.94666 14.8489 3.13547 14.9285 3.33794 14.9285Z" fill="white"/>
</svg>
