<svg width="21" height="21" viewBox="0 0 21 21" fill="none" xmlns="http://www.w3.org/2000/svg">
<mask id="path-1-inside-1" fill="white">
<path d="M16.0336 1.65639L10.4997 7.19062C8.65515 5.34667 6.81001 3.50094 4.96517 1.65639C2.83101 -0.477767 -0.477085 2.83152 1.65529 4.96627C3.50043 6.80963 5.34616 8.65566 7.18922 10.5002C5.34532 12.3456 3.50068 14.1902 1.65529 16.0341C-0.477085 18.1677 2.83131 21.4761 4.96517 19.344C6.80971 17.4989 8.65485 15.6534 10.4994 13.8095L16.0333 19.344C18.1675 21.4776 21.4765 18.168 19.3432 16.0341C17.4981 14.189 15.6535 12.3444 13.8078 10.4996C15.6532 8.65447 17.4978 6.80933 19.3432 4.96449C21.4768 2.83152 18.1678 -0.477766 16.0333 1.65758"/>
</mask>
<path d="M16.0336 1.65639L10.4997 7.19062C8.65515 5.34667 6.81001 3.50094 4.96517 1.65639C2.83101 -0.477767 -0.477085 2.83152 1.65529 4.96627C3.50043 6.80963 5.34616 8.65566 7.18922 10.5002C5.34532 12.3456 3.50068 14.1902 1.65529 16.0341C-0.477085 18.1677 2.83131 21.4761 4.96517 19.344C6.80971 17.4989 8.65485 15.6534 10.4994 13.8095L16.0333 19.344C18.1675 21.4776 21.4765 18.168 19.3432 16.0341C17.4981 14.189 15.6535 12.3444 13.8078 10.4996C15.6532 8.65447 17.4978 6.80933 19.3432 4.96449C21.4768 2.83152 18.1678 -0.477766 16.0333 1.65758" fill="white"/>
<path d="M10.4997 7.19062L9.87927 7.81124L10.4998 8.43158L11.1202 7.81113L10.4997 7.19062ZM4.96517 1.65639L4.34465 2.27691L4.3447 2.27696L4.96517 1.65639ZM1.65529 4.96627L1.03442 5.58645L1.03507 5.5871L1.65529 4.96627ZM7.18922 10.5002L7.80999 11.1205L8.42976 10.5002L7.80999 9.87993L7.18922 10.5002ZM1.65529 16.0341L1.03502 15.4134L1.03459 15.4138L1.65529 16.0341ZM4.96517 19.344L5.58543 19.9648L5.58579 19.9644L4.96517 19.344ZM10.4994 13.8095L11.12 13.189L10.4995 12.5685L9.87897 13.1889L10.4994 13.8095ZM16.0333 19.344L15.4128 19.9645L15.4129 19.9646L16.0333 19.344ZM19.3432 16.0341L19.9638 15.4137L19.9637 15.4136L19.3432 16.0341ZM13.8078 10.4996L13.1873 9.87904L12.5665 10.4997L13.1874 11.1203L13.8078 10.4996ZM19.3432 4.96449L19.9636 5.58511L19.9636 5.5851L19.3432 4.96449ZM15.4131 1.03589L9.87916 6.57012L11.1202 7.81113L16.6542 2.2769L15.4131 1.03589ZM11.1201 6.57C9.2755 4.72598 7.43079 2.88067 5.58564 1.03582L4.3447 2.27696C6.18923 4.1212 8.0348 5.96737 9.87927 7.81124L11.1201 6.57ZM5.58569 1.03587C4.87648 0.326654 4.0209 0.0347012 3.18183 0.0979443C2.36679 0.159376 1.63006 0.549568 1.0897 1.09002C0.549337 1.63049 0.159284 2.36727 0.0976909 3.18226C0.0342854 4.02121 0.325704 4.87694 1.03442 5.58645L2.27616 4.3461C1.91869 3.98823 1.82398 3.62976 1.8478 3.31452C1.87344 2.97531 2.04397 2.61789 2.33086 2.33096C2.61775 2.04402 2.97492 1.87362 3.31374 1.84808C3.62854 1.82436 3.98678 1.91905 4.34465 2.27691L5.58569 1.03587ZM1.03507 5.5871C2.87998 7.43022 4.72552 9.27606 6.56845 11.1205L7.80999 9.87993C5.96681 8.03526 4.12088 6.18903 2.27551 4.34545L1.03507 5.5871ZM6.56845 9.87993C4.72471 11.7252 2.88024 13.5696 1.03502 15.4134L2.27556 16.6549C4.12111 14.8108 5.96593 12.966 7.80999 11.1205L6.56845 9.87993ZM1.03459 15.4138C0.325776 16.123 0.0342801 16.9785 0.0977373 17.8174C0.159377 18.6323 0.549536 19.3689 1.08987 19.9092C1.6302 20.4495 2.36682 20.8397 3.18167 20.9014C4.02053 20.9649 4.87612 20.6735 5.58543 19.9648L4.34491 18.7232C3.98729 19.0806 3.62913 19.1751 3.31416 19.1513C2.97517 19.1256 2.61786 18.9551 2.33091 18.6682C2.04396 18.3812 1.87348 18.0239 1.84784 17.685C1.82402 17.3701 1.91861 17.0121 2.27598 16.6545L1.03459 15.4138ZM5.58579 19.9644C7.43031 18.1193 9.27537 16.274 11.1198 14.4301L9.87897 13.1889C8.03434 15.0329 6.18912 16.8784 4.34455 18.7236L5.58579 19.9644ZM9.87884 14.43L15.4128 19.9645L16.6539 18.7235L11.12 13.189L9.87884 14.43ZM15.4129 19.9646C16.1222 20.6737 16.9779 20.9655 17.8169 20.9021C18.632 20.8405 19.3687 20.4503 19.9091 19.9099C20.4495 19.3694 20.8396 18.6326 20.9012 17.8176C20.9645 16.9786 20.6729 16.123 19.9638 15.4137L18.7226 16.6546C19.0802 17.0122 19.1749 17.3705 19.1511 17.6855C19.1255 18.0245 18.955 18.3819 18.668 18.6689C18.381 18.9559 18.0237 19.1264 17.6847 19.152C17.3698 19.1757 17.0115 19.0811 16.6538 18.7234L15.4129 19.9646ZM19.9637 15.4136C18.1186 13.5685 16.274 11.7239 14.4282 9.87894L13.1874 11.1203C15.0331 12.965 16.8775 14.8095 18.7227 16.6547L19.9637 15.4136ZM14.4283 11.1202C16.274 9.27474 18.1181 7.43002 19.9636 5.58511L18.7228 4.34386C16.8774 6.18864 15.0324 8.0342 13.1873 9.87904L14.4283 11.1202ZM19.9636 5.5851C20.6728 4.87609 20.9647 4.02056 20.9014 3.18161C20.8399 2.3667 20.4496 1.63003 19.9092 1.08977C19.3687 0.549499 18.6318 0.159548 17.8167 0.0983956C16.9775 0.0354416 16.1219 0.327686 15.4127 1.03719L16.654 2.27798C17.012 1.91981 17.3704 1.82495 17.6854 1.84858C18.0243 1.87401 18.3815 2.04431 18.6684 2.33106C18.9553 2.61783 19.1257 2.97495 19.1512 3.3137C19.175 3.6284 19.0804 3.9864 18.7228 4.34388L19.9636 5.5851Z" fill="white" mask="url(#path-1-inside-1)"/>
</svg>
