<svg width="377" height="223" viewBox="0 0 377 223" fill="none" xmlns="http://www.w3.org/2000/svg">
<path fill-rule="evenodd" clip-rule="evenodd" d="M220.714 175.857L146.431 122.042L52.2161 216.257C44.4056 224.067 31.7423 224.067 23.9318 216.257L5.85786 198.183C-1.95262 190.373 -1.95262 177.709 5.85787 169.899L127.952 47.8049C129.925 45.832 132.207 44.3575 134.643 43.3813C141.302 39.4007 149.968 39.5113 156.649 44.3512L231.948 98.9024L324.075 6.77485C331.886 -1.03563 344.549 -1.03562 352.359 6.77486L370.433 24.8488C378.244 32.6593 378.244 45.3226 370.433 53.1331L248.339 175.227C240.745 182.822 228.562 183.031 220.714 175.857Z" fill="#6FC7BA" fill-opacity="0.5"/>
</svg>
