<svg width="122" height="71" viewBox="0 0 122 71" fill="none" xmlns="http://www.w3.org/2000/svg">
<path fill-rule="evenodd" clip-rule="evenodd" d="M73.8765 56.9356C72.0332 56.6998 70.2213 56.012 68.6104 54.845L47.2018 39.3352L18.8308 67.7063C14.5669 71.9702 7.65372 71.9702 3.38982 67.7063C-0.87408 63.4424 -0.874081 56.5292 3.38982 52.2653L38.0367 17.6184C39.9659 15.6893 42.4373 14.633 44.9603 14.4495C48.1406 13.6478 51.6403 14.2081 54.5041 16.2828L75.6855 31.6279L103.361 3.95219C107.625 -0.311705 114.538 -0.3117 118.802 3.9522C123.066 8.2161 123.066 15.1292 118.802 19.3931L84.1553 54.04C81.3678 56.8276 77.4481 57.7927 73.8765 56.9356Z" fill="#DC3163"/>
</svg>
