<svg width="8" height="8" viewBox="0 0 8 8" fill="none" xmlns="http://www.w3.org/2000/svg">
<path d="M2.99525 4.45209C3.43695 4.90017 3.97139 5.24611 4.56103 5.46562L5.35873 4.83084C5.38239 4.81456 5.41042 4.80584 5.43914 4.80584C5.46786 4.80584 5.49589 4.81456 5.51954 4.83084L7.00069 5.78512C7.05692 5.81893 7.10452 5.86535 7.13973 5.92071C7.17494 5.97607 7.19679 6.03887 7.20356 6.10413C7.21033 6.16938 7.20184 6.23533 7.17875 6.29674C7.15566 6.35815 7.11861 6.41335 7.07051 6.45799L6.37649 7.14355C6.2771 7.24175 6.15494 7.31382 6.02092 7.35333C5.8869 7.39283 5.74518 7.39854 5.60841 7.36995C4.24411 7.08818 2.98661 6.42826 1.97961 5.46562C0.994963 4.49341 0.313592 3.25636 0.0181516 1.90453C-0.0110341 1.76988 -0.00494268 1.62997 0.0358356 1.49837C0.0766139 1.36677 0.150696 1.24793 0.250903 1.15337L0.970316 0.459352C1.01483 0.413603 1.06913 0.378518 1.12913 0.356725C1.18912 0.334932 1.25328 0.326994 1.31678 0.333507C1.38028 0.34002 1.44149 0.360815 1.49581 0.394334C1.55014 0.427853 1.59618 0.473228 1.63048 0.527061L2.6165 1.98916C2.63351 2.01212 2.64269 2.03994 2.64269 2.06851C2.64269 2.09708 2.63351 2.1249 2.6165 2.14786L1.96691 2.92863C2.19238 3.50648 2.54366 4.02688 2.99525 4.45209Z" fill="#4C567C"/>
</svg>
