<svg width="99" height="100" viewBox="0 0 99 100" fill="none" xmlns="http://www.w3.org/2000/svg">
<mask id="path-1-inside-1" fill="white">
<path d="M86.9858 41.8307L58.415 41.5404C58.5104 32.0191 58.609 22.4917 58.7053 12.968C58.8175 1.95001 41.7357 1.77908 41.6173 12.794C41.5249 22.3153 41.4271 31.8451 41.3263 41.364C31.8029 41.2709 22.2795 41.1739 12.7562 41.073C1.74431 40.9639 1.57032 58.0442 12.5822 58.161C22.1066 58.2564 31.6332 58.3527 41.1545 58.4512L40.862 87.0228C40.7513 98.0393 57.8362 98.2118 57.9499 87.1969C58.0469 77.671 58.1439 68.1481 58.2387 58.6214C67.7654 58.7192 77.2897 58.8147 86.8156 58.9133C97.8291 59.027 98.0039 41.9429 86.982 41.833"/>
</mask>
<path d="M86.9858 41.8307L58.415 41.5404C58.5104 32.0191 58.609 22.4917 58.7053 12.968C58.8175 1.95001 41.7357 1.77908 41.6173 12.794C41.5249 22.3153 41.4271 31.8451 41.3263 41.364C31.8029 41.2709 22.2795 41.1739 12.7562 41.073C1.74431 40.9639 1.57032 58.0442 12.5822 58.161C22.1066 58.2564 31.6332 58.3527 41.1545 58.4512L40.862 87.0228C40.7513 98.0393 57.8362 98.2118 57.9499 87.1969C58.0469 77.671 58.1439 68.1481 58.2387 58.6214C67.7654 58.7192 77.2897 58.8147 86.8156 58.9133C97.8291 59.027 98.0039 41.9429 86.982 41.833" fill="#DC3163"/>
<path d="M58.415 41.5404L57.415 41.5304L57.405 42.5302L58.4048 42.5404L58.415 41.5404ZM58.7053 12.968L57.7053 12.9579L57.7053 12.9579L58.7053 12.968ZM41.6173 12.794L40.6174 12.7832L40.6174 12.7843L41.6173 12.794ZM41.3263 41.364L41.3165 42.364L42.3157 42.3738L42.3262 41.3746L41.3263 41.364ZM12.7562 41.073L12.7668 40.0731L12.7661 40.0731L12.7562 41.073ZM12.5822 58.161L12.5716 59.1609L12.5721 59.1609L12.5822 58.161ZM41.1545 58.4512L42.1545 58.4615L42.1647 57.4616L41.1649 57.4513L41.1545 58.4512ZM40.862 87.0228L39.862 87.0126L39.862 87.0128L40.862 87.0228ZM57.9499 87.1969L58.9498 87.2072L58.9498 87.2071L57.9499 87.1969ZM58.2387 58.6214L58.2489 57.6215L57.2487 57.6112L57.2387 58.6115L58.2387 58.6214ZM86.8156 58.9133L86.8053 59.9132L86.8053 59.9132L86.8156 58.9133ZM86.996 40.8307L58.4251 40.5405L58.4048 42.5404L86.9757 42.8306L86.996 40.8307ZM59.4149 41.5504C59.5104 32.029 59.609 22.5023 59.7052 12.9782L57.7053 12.9579C57.6091 22.4811 57.5105 32.0092 57.415 41.5304L59.4149 41.5504ZM59.7052 12.9782C59.7362 9.94063 58.5716 7.583 56.7589 5.99207C54.9669 4.41925 52.5977 3.64234 50.2579 3.61871C47.918 3.59509 45.5333 4.324 43.709 5.85987C41.8637 7.41339 40.65 9.74634 40.6174 12.7832L42.6173 12.8047C42.6438 10.3342 43.6097 8.5579 44.9971 7.38984C46.4054 6.20413 48.3063 5.59911 50.2377 5.61861C52.169 5.63811 54.0566 6.28138 55.4396 7.49521C56.802 8.69094 57.7305 10.4864 57.7053 12.9579L59.7052 12.9782ZM40.6174 12.7843C40.525 22.3053 40.4272 31.8347 40.3263 41.3535L42.3262 41.3746C42.427 31.8555 42.5249 22.3254 42.6173 12.8037L40.6174 12.7843ZM41.3361 40.3641C31.813 40.2709 22.2899 40.1739 12.7668 40.0731L12.7456 42.073C22.2692 42.1738 31.7929 42.2708 41.3165 42.364L41.3361 40.3641ZM12.7661 40.0731C9.7299 40.043 7.37333 41.2083 5.78308 43.0211C4.21095 44.8133 3.43417 47.1824 3.41033 49.5221C3.3865 51.8618 4.11486 54.2463 5.65012 56.0703C7.20306 57.9153 9.53535 59.1287 12.5716 59.1609L12.5928 57.161C10.1231 57.1348 8.34766 56.1694 7.18025 54.7824C5.99518 53.3744 5.39056 51.4738 5.41023 49.5425C5.4299 47.6111 6.07312 45.7233 7.28659 44.34C8.48195 42.9773 10.2766 42.0485 12.7463 42.073L12.7661 40.0731ZM12.5721 59.1609C22.0965 59.2564 31.6231 59.3527 41.1442 59.4512L41.1649 57.4513C31.6434 57.3528 22.1166 57.2565 12.5922 57.161L12.5721 59.1609ZM40.1546 58.441L39.862 87.0126L41.8619 87.0331L42.1545 58.4615L40.1546 58.441ZM39.862 87.0128C39.8315 90.0501 40.9967 92.4075 42.8097 93.9983C44.6021 95.5709 46.9716 96.3479 49.3116 96.3716C51.6516 96.3953 54.0364 95.6666 55.8604 94.1308C57.7055 92.5772 58.9185 90.2442 58.9498 87.2072L56.9499 87.1866C56.9244 89.6571 55.9592 91.4331 54.5723 92.6009C53.1643 93.7864 51.2635 94.3913 49.3319 94.3717C47.4003 94.3521 45.5122 93.7088 44.1288 92.4949C42.766 91.2992 41.8371 89.5038 41.8619 87.0329L39.862 87.0128ZM58.9498 87.2071C59.0469 77.6812 59.1439 68.1582 59.2386 58.6314L57.2387 58.6115C57.144 68.138 57.047 77.6608 56.9499 87.1867L58.9498 87.2071ZM58.2284 59.6214C67.7556 59.7192 77.2793 59.8147 86.8053 59.9132L86.826 57.9133C77.3002 57.8148 67.7751 57.7193 58.2489 57.6215L58.2284 59.6214ZM86.8053 59.9132C89.842 59.9446 92.199 58.78 93.7895 56.9675C95.3619 55.1756 96.1386 52.8066 96.162 50.467C96.1854 48.1274 95.4561 45.743 93.9192 43.9197C92.3647 42.0753 90.0304 40.8633 86.9919 40.833L86.972 42.8329C89.4444 42.8576 91.2215 43.8223 92.39 45.2086C93.5761 46.6159 94.1814 48.5161 94.1621 50.447C94.1428 52.378 93.4997 54.2655 92.2862 55.6484C91.0909 57.0106 89.296 57.9388 86.826 57.9133L86.8053 59.9132Z" fill="#DC3163" mask="url(#path-1-inside-1)"/>
</svg>
