<svg width="22" height="21" viewBox="0 0 22 21" fill="none" xmlns="http://www.w3.org/2000/svg">
<path d="M9.23561 17.9068C11.2221 17.9064 13.1514 17.2413 14.7162 16.0176L19.6361 20.9375L21.2186 19.355L16.2987 14.4351C17.5231 12.8701 18.1885 10.9404 18.189 8.95339C18.189 4.01671 14.1723 0 9.23561 0C4.29894 0 0.282227 4.01671 0.282227 8.95339C0.282227 13.8901 4.29894 17.9068 9.23561 17.9068ZM9.23561 2.23835C12.939 2.23835 15.9507 5.25004 15.9507 8.95339C15.9507 12.6567 12.939 15.6684 9.23561 15.6684C5.53227 15.6684 2.52057 12.6567 2.52057 8.95339C2.52057 5.25004 5.53227 2.23835 9.23561 2.23835Z" fill="white"/>
</svg>
