<svg width="965" height="324" viewBox="0 0 965 324" fill="none" xmlns="http://www.w3.org/2000/svg">
<g filter="url(#filter0_d)">
<rect x="45" y="45" width="875.609" height="234.434" rx="12" fill="white"/>
<path d="M361.801 180.154C358.841 180.154 352.761 179.994 352.761 178.314C352.761 177.354 355.561 176.874 355.561 175.514C355.561 174.714 354.601 173.834 353.481 173.754C351.721 173.594 349.561 173.594 348.761 173.514C347.961 173.514 345.561 172.874 345.481 171.434C345.801 169.914 346.441 169.754 347.721 169.754C348.361 169.754 349.241 169.914 350.521 170.554C350.921 170.874 351.321 171.034 351.641 171.034C351.961 171.034 352.361 170.794 352.361 170.394C352.361 169.274 350.361 168.074 348.281 168.074C346.281 168.074 344.601 169.434 344.601 171.434C344.601 175.354 347.321 175.674 353.161 175.674C353.721 175.674 354.361 175.674 354.361 176.154C354.361 177.034 351.481 176.794 351.481 179.434C351.481 182.154 355.641 182.314 358.201 182.314C364.121 182.314 371.721 180.234 375.961 176.634L375.481 176.154C371.401 179.274 365.481 180.154 361.801 180.154ZM410.696 178.474C411.016 178.474 411.256 177.674 411.256 177.434C411.256 177.354 411.176 177.274 410.856 177.274C406.616 177.274 390.616 176.954 390.136 176.954C389.896 176.954 389.496 177.354 389.496 178.074C389.496 178.554 389.816 178.874 390.136 178.874C390.456 178.874 408.136 178.474 409.576 178.474H410.696ZM496.785 115.674C496.785 114.074 494.545 113.754 491.265 113.754C468.465 113.754 419.505 127.994 419.505 138.314C419.505 144.314 425.825 146.314 434.865 147.834C458.865 151.914 495.185 154.394 495.185 169.434C495.185 176.314 488.945 182.554 469.745 182.554C447.665 182.554 443.185 177.274 441.425 177.274C440.625 177.274 440.225 177.434 440.225 178.234C440.225 182.874 459.905 184.634 468.865 184.634C479.425 184.634 480.465 184.154 495.425 184.154C498.225 184.154 500.465 184.474 505.665 184.474C508.305 184.474 510.545 184.154 510.545 182.234C510.545 181.354 509.505 181.034 508.465 181.034C506.865 181.034 506.545 181.994 487.585 181.994C487.025 181.994 486.785 181.914 486.785 181.674C486.785 181.674 496.305 178.314 496.305 168.474C496.305 153.674 461.185 148.554 437.265 144.874C428.065 143.434 421.105 141.674 421.105 137.674C421.105 129.834 472.145 115.914 488.545 115.914C489.265 115.914 491.185 115.994 491.185 116.554C491.185 117.034 489.585 117.194 489.585 117.754C489.585 118.394 491.265 118.394 491.345 118.394C495.345 118.394 496.785 116.314 496.785 115.674ZM511.007 164.874C510.047 164.874 510.047 166.154 510.047 166.154C510.047 167.194 510.767 167.754 511.327 167.754C511.807 167.754 512.287 167.354 512.287 166.474C512.287 165.674 511.727 164.874 511.007 164.874ZM511.887 173.434C511.887 179.114 516.047 181.994 522.127 181.994C525.727 181.994 530.047 180.954 534.527 178.954C535.807 178.314 537.087 177.514 538.047 176.634L537.567 176.154C536.527 176.954 535.407 177.514 534.207 178.074C531.087 179.434 527.727 180.154 524.527 180.154C518.607 180.154 513.567 177.754 513.167 172.874C513.087 172.714 513.007 172.634 512.847 172.634C512.447 172.634 511.887 173.114 511.887 173.434ZM571.045 177.914C566.245 179.994 560.085 180.474 554.725 181.834C554.325 180.714 554.085 179.594 553.845 178.554C553.685 177.674 553.525 176.794 553.525 175.994C553.525 174.874 553.925 174.954 553.925 173.274C553.925 172.794 553.845 172.474 553.365 172.474C552.565 172.554 552.405 173.514 552.405 174.474C552.485 175.514 552.485 175.674 552.485 175.754C552.485 178.794 548.885 180.314 546.405 180.314C542.005 180.314 538.965 177.274 538.965 174.874C538.965 173.354 540.245 172.074 543.365 172.074C545.845 172.074 548.405 174.074 549.685 174.954C549.765 174.954 549.765 175.034 549.765 175.034C550.005 175.194 550.165 175.274 550.325 175.274C550.725 175.274 550.885 174.794 550.885 174.394C550.885 174.154 550.805 173.914 550.725 173.834C550.005 172.714 547.685 170.314 543.525 170.314C539.925 170.314 537.765 173.354 537.765 176.314C537.765 179.274 539.845 182.154 544.565 182.154C547.925 182.154 551.525 179.674 551.925 179.114C552.085 179.114 552.325 179.114 552.405 179.434C552.645 180.394 552.885 181.354 553.205 182.314C547.205 184.154 542.565 187.674 542.565 196.714C542.565 205.434 554.965 225.194 563.525 225.194C567.125 225.194 568.325 222.714 568.325 219.034C568.325 213.354 558.885 195.194 554.965 182.874C560.645 181.354 567.205 181.034 571.445 178.714C572.565 178.074 573.605 177.354 574.485 176.634L574.005 176.154C573.125 176.874 572.085 177.434 571.045 177.914ZM543.925 195.834C543.925 188.234 548.165 185.034 553.525 183.274C557.845 197.274 566.965 213.274 566.965 219.994C566.965 221.754 566.405 222.874 564.965 222.874C556.405 222.874 543.925 205.754 543.925 195.834ZM584.412 171.834C580.652 171.834 579.052 175.354 579.052 180.794C576.492 179.034 574.652 173.514 574.092 171.834C574.092 171.594 574.012 171.514 573.772 171.514C573.292 171.514 572.492 172.074 572.492 172.714C572.492 174.874 577.772 183.274 580.092 183.274C580.732 183.274 581.132 182.634 581.132 181.034C581.132 175.354 582.572 173.434 584.812 173.434C587.932 173.434 592.412 177.274 596.012 179.674C597.852 181.194 600.572 181.994 603.772 181.994C607.372 181.994 611.692 181.034 616.092 178.954C617.372 178.314 618.652 177.514 619.612 176.634L619.132 176.154C618.092 176.954 616.972 177.514 615.772 178.074C612.652 179.434 609.212 180.154 606.012 180.154C595.612 180.154 592.332 171.834 584.412 171.834Z" fill="#C4C4C4"/>
</g>
<defs>
<filter id="filter0_d" x="0.889889" y="0.889889" width="963.829" height="322.654" filterUnits="userSpaceOnUse" color-interpolation-filters="sRGB">
<feFlood flood-opacity="0" result="BackgroundImageFix"/>
<feColorMatrix in="SourceAlpha" type="matrix" values="0 0 0 0 0 0 0 0 0 0 0 0 0 0 0 0 0 0 127 0"/>
<feOffset/>
<feGaussianBlur stdDeviation="22.0551"/>
<feColorMatrix type="matrix" values="0 0 0 0 0 0 0 0 0 0 0 0 0 0 0 0 0 0 0.11 0"/>
<feBlend mode="normal" in2="BackgroundImageFix" result="effect1_dropShadow"/>
<feBlend mode="normal" in="SourceGraphic" in2="effect1_dropShadow" result="shape"/>
</filter>
</defs>
</svg>
