<svg width="20" height="21" viewBox="0 0 20 21" fill="none" xmlns="http://www.w3.org/2000/svg">
<path d="M9.1 2.18053V2.06714L8.9875 2.08131C4.83019 2.60506 1.75856 6.21303 1.90489 10.4006C2.05121 14.5883 5.36718 17.973 9.55091 18.2053C13.7346 18.4376 17.4049 15.4407 18.0139 11.2951L18.015 11.2878V11.2805V11.2645V11.2355V11.2055V11.1765V11.1605V11.1495V11.1355V11.1185V11.0185H17.915H9.1V2.18053ZM11.0125 2.08131L10.9 2.06715V2.18053V9.11853V9.21853H11H17.938H18.0514L18.0372 9.10604C17.575 5.43482 14.6837 2.54353 11.0125 2.08131ZM9.99989 20.0185C4.53232 20.0185 0.1 15.5861 0.1 10.1185C0.1 4.65091 4.53238 0.21853 10 0.21853C15.4676 0.21853 19.8999 4.65085 19.9 10.1184C19.894 15.5836 15.4651 20.0125 9.99989 20.0185Z" fill="#555E82" stroke="white" stroke-width="0.2"/>
</svg>
