<svg width="99" height="94" viewBox="0 0 99 94" fill="none" xmlns="http://www.w3.org/2000/svg">
<path fill-rule="evenodd" clip-rule="evenodd" d="M27.2621 9.288C33.4464 3.95521 41.334 1.00998 49.5 0.984375C66.1444 0.984375 79.9611 13.3594 81.4646 29.3169C91.3151 30.7091 99 38.9571 99 49.0798C99 60.1926 89.7311 69.0469 78.5008 69.0469H61.875C61.0545 69.0469 60.2676 68.7209 59.6874 68.1407C59.1072 67.5605 58.7812 66.7736 58.7812 65.9531C58.7812 65.1326 59.1072 64.3457 59.6874 63.7655C60.2676 63.1853 61.0545 62.8594 61.875 62.8594H78.507C86.4951 62.8594 92.8125 56.5976 92.8125 49.0798C92.8125 41.5558 86.5013 35.2941 78.5008 35.2941H75.4071V32.2003C75.4133 18.4641 63.9045 7.17188 49.5 7.17188C42.8167 7.19857 36.3629 9.61243 31.3026 13.9781C26.6186 18.0124 24.1684 22.8758 24.1684 26.6934V29.4654L21.4149 29.7686C12.771 30.7153 6.1875 37.8124 6.1875 46.2645C6.1875 55.3416 13.7981 62.8594 23.3949 62.8594H37.125C37.9455 62.8594 38.7324 63.1853 39.3126 63.7655C39.8928 64.3457 40.2188 65.1326 40.2188 65.9531C40.2188 66.7736 39.8928 67.5605 39.3126 68.1407C38.7324 68.7209 37.9455 69.0469 37.125 69.0469H23.3949C10.5682 69.0469 0 58.9365 0 46.2645C0 35.3559 7.83337 26.3222 18.2036 24.0328C19.0884 18.693 22.5225 13.3717 27.2621 9.288Z" fill="#6FC7BA"/>
<path fill-rule="evenodd" clip-rule="evenodd" d="M47.3098 26.6376C47.5972 26.3495 47.9386 26.1209 48.3145 25.9649C48.6903 25.809 49.0933 25.7287 49.5002 25.7287C49.9071 25.7287 50.3101 25.809 50.6859 25.9649C51.0618 26.1209 51.4032 26.3495 51.6906 26.6376L70.2531 45.2001C70.834 45.781 71.1603 46.5689 71.1603 47.3905C71.1603 48.212 70.834 48.9999 70.2531 49.5809C69.6721 50.1618 68.8842 50.4881 68.0627 50.4881C67.2411 50.4881 66.4532 50.1618 65.8723 49.5809L52.5939 36.2963V90.703C52.5939 91.5235 52.268 92.3104 51.6878 92.8906C51.1076 93.4708 50.3207 93.7967 49.5002 93.7967C48.6797 93.7967 47.8928 93.4708 47.3126 92.8906C46.7324 92.3104 46.4064 91.5235 46.4064 90.703V36.2963L33.1281 49.5809C32.5471 50.1618 31.7592 50.4881 30.9377 50.4881C30.1161 50.4881 29.3282 50.1618 28.7473 49.5809C28.1664 48.9999 27.84 48.212 27.84 47.3905C27.84 46.5689 28.1664 45.781 28.7473 45.2001L47.3098 26.6376Z" fill="#6FC7BA"/>
</svg>
