<svg width="33" height="24" viewBox="0 0 33 24" fill="none" xmlns="http://www.w3.org/2000/svg">
<path d="M22.0359 23.149H3.03911C2.44638 23.149 1.87792 22.9135 1.45879 22.4944C1.03966 22.0752 0.804199 21.5068 0.804199 20.914V3.03472C0.804199 2.44198 1.03966 1.87352 1.45879 1.4544C1.87792 1.03527 2.44638 0.799805 3.03911 0.799805H22.0359C22.6286 0.799805 23.1971 1.03527 23.6162 1.4544C24.0353 1.87352 24.2708 2.44198 24.2708 3.03472V7.5716L30.3274 3.24704C30.4942 3.12829 30.6904 3.05764 30.8946 3.04281C31.0988 3.02797 31.3032 3.06953 31.4853 3.16293C31.6675 3.25633 31.8206 3.39799 31.9277 3.57245C32.0349 3.7469 32.0921 3.94744 32.093 4.15218V19.7966C32.0921 20.0013 32.0349 20.2019 31.9277 20.3763C31.8206 20.5508 31.6675 20.6924 31.4853 20.7858C31.3032 20.8792 31.0988 20.9208 30.8946 20.906C30.6904 20.8911 30.4942 20.8205 30.3274 20.7017L24.2708 16.3772V20.914C24.2708 21.5068 24.0353 22.0752 23.6162 22.4944C23.1971 22.9135 22.6286 23.149 22.0359 23.149Z" fill="#A5A5A5"/>
</svg>
