<svg width="49" height="49" viewBox="0 0 49 49" fill="none" xmlns="http://www.w3.org/2000/svg">
<circle cx="24.5" cy="24.5" r="24.5" fill="#C4C4C4"/>
<mask id="path-2-inside-1" fill="white">
<path d="M30.8059 14.4224L24.4998 20.7288C22.3979 18.6276 20.2953 16.5243 18.193 14.4224C15.7611 11.9904 11.9914 15.7615 14.4213 18.1941C16.5239 20.2947 18.6272 22.3983 20.7274 24.5002C18.6262 26.6031 16.5242 28.7051 14.4213 30.8063C11.9914 33.2376 15.7614 37.0076 18.193 34.578C20.2949 32.4754 22.3975 30.3725 24.4994 28.2712L30.8056 34.578C33.2375 37.0093 37.0082 33.2379 34.5773 30.8063C32.4747 28.7037 30.3728 26.6018 28.2695 24.4995C30.3724 22.3969 32.4743 20.2943 34.5773 18.1921C37.0086 15.7615 33.2378 11.9904 30.8056 14.4237"/>
</mask>
<path d="M30.8059 14.4224L24.4998 20.7288C22.3979 18.6276 20.2953 16.5243 18.193 14.4224C15.7611 11.9904 11.9914 15.7615 14.4213 18.1941C16.5239 20.2947 18.6272 22.3983 20.7274 24.5002C18.6262 26.6031 16.5242 28.7051 14.4213 30.8063C11.9914 33.2376 15.7614 37.0076 18.193 34.578C20.2949 32.4754 22.3975 30.3725 24.4994 28.2712L30.8056 34.578C33.2375 37.0093 37.0082 33.2379 34.5773 30.8063C32.4747 28.7037 30.3728 26.6018 28.2695 24.4995C30.3724 22.3969 32.4743 20.2943 34.5773 18.1921C37.0086 15.7615 33.2378 11.9904 30.8056 14.4237" fill="white"/>
<path d="M24.4998 20.7288L23.7928 21.436L24.4999 22.1429L25.2069 21.4359L24.4998 20.7288ZM18.193 14.4224L17.4859 15.1295L17.486 15.1295L18.193 14.4224ZM14.4213 18.1941L13.7138 18.9008L13.7145 18.9015L14.4213 18.1941ZM20.7274 24.5002L21.4348 25.207L22.141 24.5002L21.4348 23.7934L20.7274 24.5002ZM14.4213 30.8063L13.7145 30.0989L13.714 30.0994L14.4213 30.8063ZM18.193 34.578L18.8998 35.2854L18.9002 35.285L18.193 34.578ZM24.4994 28.2712L25.2066 27.5642L24.4996 26.8571L23.7925 27.564L24.4994 28.2712ZM30.8056 34.578L30.0984 35.2851L30.0985 35.2852L30.8056 34.578ZM34.5773 30.8063L35.2845 30.0993L35.2844 30.0992L34.5773 30.8063ZM28.2695 24.4995L27.5624 23.7924L26.855 24.4996L27.5625 25.2068L28.2695 24.4995ZM34.5773 18.1921L35.2843 18.8993L35.2843 18.8993L34.5773 18.1921ZM30.0988 13.7153L23.7927 20.0217L25.2069 21.4359L31.513 15.1295L30.0988 13.7153ZM25.2068 20.0216C23.1048 17.9203 21.0027 15.8175 18.9001 13.7152L17.486 15.1295C19.5879 17.2311 21.691 19.3349 23.7928 21.436L25.2068 20.0216ZM18.9001 13.7153C18.0919 12.9071 17.117 12.5744 16.1608 12.6465C15.2321 12.7165 14.3925 13.1611 13.7768 13.777C13.161 14.3929 12.7165 15.2324 12.6463 16.1611C12.5741 17.1172 12.9062 18.0923 13.7138 18.9008L15.1288 17.4874C14.7214 17.0796 14.6135 16.6711 14.6407 16.3119C14.6699 15.9253 14.8642 15.518 15.1911 15.1911C15.518 14.8641 15.925 14.6699 16.3111 14.6408C16.6699 14.6138 17.0781 14.7217 17.4859 15.1295L18.9001 13.7153ZM13.7145 18.9015C15.8169 21.0018 17.9199 23.1053 20.02 25.207L21.4348 23.7934C19.3344 21.6913 17.2309 19.5875 15.128 17.4866L13.7145 18.9015ZM20.02 23.7934C17.919 25.8961 15.8172 27.9979 13.7145 30.0989L15.1281 31.5137C17.2312 29.4123 19.3334 27.3101 21.4348 25.207L20.02 23.7934ZM13.714 30.0994C12.9063 30.9076 12.5741 31.8825 12.6464 32.8384C12.7166 33.767 13.1612 34.6064 13.777 35.2221C14.3927 35.8378 15.2321 36.2824 16.1606 36.3527C17.1166 36.4251 18.0915 36.093 18.8998 35.2854L17.4862 33.8706C17.0787 34.2778 16.6705 34.3856 16.3116 34.3584C15.9253 34.3292 15.5182 34.1349 15.1912 33.8079C14.8642 33.4809 14.6699 33.0738 14.6407 32.6876C14.6136 32.3287 14.7213 31.9207 15.1286 31.5132L13.714 30.0994ZM18.9002 35.285C21.0021 33.1825 23.1046 31.0796 25.2064 28.9785L23.7925 27.564C21.6904 29.6654 19.5877 31.7684 17.4858 33.871L18.9002 35.285ZM23.7923 28.9783L30.0984 35.2851L31.5127 33.871L25.2066 27.5642L23.7923 28.9783ZM30.0985 35.2852C30.9068 36.0933 31.8819 36.4257 32.838 36.3535C33.7668 36.2833 34.6063 35.8387 35.2221 35.2228C35.8379 34.607 36.2825 33.7674 36.3527 32.8387C36.4249 31.8826 36.0925 30.9075 35.2845 30.0993L33.8701 31.5133C34.2775 31.9209 34.3854 32.3291 34.3583 32.6881C34.3292 33.0744 34.1349 33.4816 33.8079 33.8087C33.4809 34.1357 33.0737 34.33 32.6874 34.3592C32.3285 34.3863 31.9203 34.2784 31.5126 33.8708L30.0985 35.2852ZM35.2844 30.0992C33.1818 27.9966 31.0798 25.8946 28.9764 23.7922L27.5625 25.2068C29.6657 27.309 31.7676 29.4108 33.8702 31.5134L35.2844 30.0992ZM28.9765 25.2067C31.0798 23.1037 33.1813 21.0016 35.2843 18.8993L33.8703 17.4848C31.7674 19.587 29.665 21.6901 27.5624 23.7924L28.9765 25.2067ZM35.2843 18.8993C36.0925 18.0913 36.425 17.1164 36.3528 16.1604C36.2828 15.2318 35.8381 14.3923 35.2222 13.7767C34.6063 13.161 33.7666 12.7167 32.8377 12.647C31.8815 12.5752 30.9065 12.9083 30.0983 13.7168L31.5128 15.1307C31.9208 14.7225 32.3292 14.6145 32.6881 14.6414C33.0743 14.6704 33.4814 14.8644 33.8083 15.1912C34.1352 15.518 34.3294 15.9249 34.3585 16.3109C34.3856 16.6695 34.2777 17.0775 33.8703 17.4849L35.2843 18.8993Z" fill="white" mask="url(#path-2-inside-1)"/>
</svg>
